<svg width="1194" height="149" viewBox="0 0 1194 149" fill="none" xmlns="http://www.w3.org/2000/svg">
<rect width="1194" height="149" fill="url(#paint0_linear_233_2)"/>
<path d="M57.68 85.3C56.4 85.3 55.2 85.2 54.08 85C52.98 84.82 52.03 84.55 51.23 84.19V80.08C52.11 80.46 53.08 80.77 54.14 81.01C55.22 81.25 56.24 81.37 57.2 81.37C58.4 81.37 59.29 81.26 59.87 81.04C60.47 80.82 60.77 80.34 60.77 79.6C60.77 79.1 60.62 78.7 60.32 78.4C60.04 78.1 59.57 77.84 58.91 77.62C58.27 77.38 57.39 77.1 56.27 76.78C54.95 76.38 53.9 75.94 53.12 75.46C52.34 74.96 51.78 74.36 51.44 73.66C51.1 72.96 50.93 72.1 50.93 71.08C50.93 69.24 51.59 67.83 52.91 66.85C54.23 65.87 56.18 65.38 58.76 65.38C59.88 65.38 60.97 65.47 62.03 65.65C63.09 65.81 63.95 66 64.61 66.22V70.36C63.75 70.02 62.88 69.77 62 69.61C61.14 69.45 60.3 69.37 59.48 69.37C58.4 69.37 57.52 69.47 56.84 69.67C56.18 69.87 55.85 70.33 55.85 71.05C55.85 71.47 55.97 71.81 56.21 72.07C56.45 72.31 56.86 72.53 57.44 72.73C58.04 72.93 58.85 73.17 59.87 73.45C61.45 73.87 62.66 74.38 63.5 74.98C64.34 75.56 64.92 76.24 65.24 77.02C65.56 77.78 65.72 78.64 65.72 79.6C65.72 81.3 65.06 82.68 63.74 83.74C62.42 84.78 60.4 85.3 57.68 85.3ZM75.7906 85.3C73.3106 85.3 71.3206 84.69 69.8206 83.47C68.3206 82.23 67.5706 80.37 67.5706 77.89C67.5706 75.63 68.1906 73.83 69.4306 72.49C70.6706 71.15 72.5306 70.48 75.0106 70.48C77.2706 70.48 79.0206 71.06 80.2606 72.22C81.5006 73.38 82.1206 74.94 82.1206 76.9V79.45H72.0406C72.2606 80.39 72.7706 81.05 73.5706 81.43C74.3906 81.79 75.5006 81.97 76.9006 81.97C77.6806 81.97 78.4706 81.9 79.2706 81.76C80.0906 81.62 80.7706 81.44 81.3106 81.22V84.37C80.6306 84.69 79.8206 84.92 78.8806 85.06C77.9406 85.22 76.9106 85.3 75.7906 85.3ZM72.0406 76.66H77.9206V76.03C77.9206 75.33 77.7106 74.78 77.2906 74.38C76.8706 73.96 76.1606 73.75 75.1606 73.75C74.0006 73.75 73.1906 73.99 72.7306 74.47C72.2706 74.93 72.0406 75.66 72.0406 76.66ZM92.1969 85.3C89.7169 85.3 87.7269 84.69 86.2269 83.47C84.7269 82.23 83.9769 80.37 83.9769 77.89C83.9769 75.63 84.5969 73.83 85.8369 72.49C87.0769 71.15 88.9369 70.48 91.4169 70.48C93.6769 70.48 95.4269 71.06 96.6669 72.22C97.9069 73.38 98.5269 74.94 98.5269 76.9V79.45H88.4469C88.6669 80.39 89.1769 81.05 89.9769 81.43C90.7969 81.79 91.9069 81.97 93.3069 81.97C94.0869 81.97 94.8769 81.9 95.6769 81.76C96.4969 81.62 97.1769 81.44 97.7169 81.22V84.37C97.0369 84.69 96.2269 84.92 95.2869 85.06C94.3469 85.22 93.3169 85.3 92.1969 85.3ZM88.4469 76.66H94.3269V76.03C94.3269 75.33 94.1169 74.78 93.6969 74.38C93.2769 73.96 92.5669 73.75 91.5669 73.75C90.4069 73.75 89.5969 73.99 89.1369 74.47C88.6769 74.93 88.4469 75.66 88.4469 76.66ZM107.428 85V65.68H112.198L117.448 76.39L122.668 65.68H127.408V85H122.578V73.9L118.768 81.7H116.098L112.258 73.9V85H107.428ZM133.631 90.28C132.911 90.28 132.291 90.24 131.771 90.16C131.271 90.1 130.771 89.97 130.271 89.77V86.41C130.611 86.53 130.921 86.61 131.201 86.65C131.501 86.69 131.801 86.71 132.101 86.71C132.921 86.71 133.531 86.56 133.931 86.26C134.351 85.98 134.771 85.47 135.191 84.73L128.801 70.78H133.871L137.621 79.81L141.311 70.78H146.351L140.921 83.83C140.381 85.13 139.781 86.26 139.121 87.22C138.461 88.2 137.691 88.95 136.811 89.47C135.931 90.01 134.871 90.28 133.631 90.28ZM154.655 85V65.68H163.025C164.985 65.68 166.635 66.01 167.975 66.67C169.315 67.31 170.335 68.35 171.035 69.79C171.735 71.21 172.085 73.1 172.085 75.46C172.085 78.78 171.315 81.2 169.775 82.72C168.255 84.24 166.005 85 163.025 85H154.655ZM159.485 81.28H162.365C163.405 81.28 164.275 81.13 164.975 80.83C165.695 80.51 166.235 79.93 166.595 79.09C166.975 78.25 167.165 77.04 167.165 75.46C167.165 73.86 166.995 72.63 166.655 71.77C166.335 70.89 165.815 70.28 165.095 69.94C164.395 69.58 163.485 69.4 162.365 69.4H159.485V81.28ZM182.168 85.3C179.688 85.3 177.698 84.69 176.198 83.47C174.698 82.23 173.948 80.37 173.948 77.89C173.948 75.63 174.568 73.83 175.808 72.49C177.048 71.15 178.908 70.48 181.388 70.48C183.648 70.48 185.398 71.06 186.638 72.22C187.878 73.38 188.498 74.94 188.498 76.9V79.45H178.418C178.638 80.39 179.148 81.05 179.948 81.43C180.768 81.79 181.878 81.97 183.278 81.97C184.058 81.97 184.848 81.9 185.648 81.76C186.468 81.62 187.148 81.44 187.688 81.22V84.37C187.008 84.69 186.198 84.92 185.258 85.06C184.318 85.22 183.288 85.3 182.168 85.3ZM178.418 76.66H184.298V76.03C184.298 75.33 184.088 74.78 183.668 74.38C183.248 73.96 182.538 73.75 181.538 73.75C180.378 73.75 179.568 73.99 179.108 74.47C178.648 74.93 178.418 75.66 178.418 76.66ZM196.087 85.3C194.947 85.3 193.867 85.22 192.847 85.06C191.827 84.9 191.017 84.7 190.417 84.46V80.77C191.117 81.07 191.927 81.3 192.847 81.46C193.767 81.62 194.587 81.7 195.307 81.7C196.167 81.7 196.787 81.66 197.167 81.58C197.567 81.5 197.767 81.28 197.767 80.92C197.767 80.52 197.447 80.22 196.807 80.02C196.167 79.82 195.287 79.53 194.167 79.15C192.867 78.69 191.877 78.16 191.197 77.56C190.537 76.94 190.207 76.03 190.207 74.83C190.207 73.43 190.727 72.36 191.767 71.62C192.827 70.86 194.507 70.48 196.807 70.48C197.707 70.48 198.597 70.55 199.477 70.69C200.357 70.83 201.077 70.99 201.637 71.17V74.8C201.077 74.54 200.437 74.35 199.717 74.23C198.997 74.11 198.347 74.05 197.767 74.05C197.027 74.05 196.397 74.1 195.877 74.2C195.377 74.28 195.127 74.49 195.127 74.83C195.127 75.21 195.407 75.48 195.967 75.64C196.527 75.78 197.337 76.02 198.397 76.36C199.517 76.7 200.387 77.07 201.007 77.47C201.627 77.85 202.067 78.31 202.327 78.85C202.587 79.39 202.717 80.07 202.717 80.89C202.717 82.31 202.157 83.4 201.037 84.16C199.917 84.92 198.267 85.3 196.087 85.3ZM206.123 68.53V64.9H211.373V68.53H206.123ZM206.513 85V74.35H204.413L204.833 70.78H211.343V85H206.513ZM220.541 90.28C219.841 90.28 219.101 90.25 218.321 90.19C217.541 90.13 216.801 90.04 216.101 89.92C215.401 89.8 214.801 89.66 214.301 89.5V86.2C215.101 86.46 216.061 86.66 217.181 86.8C218.301 86.94 219.331 87.01 220.271 87.01C221.491 87.01 222.401 86.94 223.001 86.8C223.621 86.68 223.931 86.46 223.931 86.14C223.931 85.86 223.811 85.67 223.571 85.57C223.331 85.47 222.861 85.42 222.161 85.42H218.231C216.951 85.42 215.951 85.19 215.231 84.73C214.531 84.27 214.181 83.6 214.181 82.72C214.181 82.12 214.361 81.55 214.721 81.01C215.101 80.47 215.651 80.07 216.371 79.81C215.551 79.39 214.931 78.86 214.511 78.22C214.091 77.58 213.881 76.77 213.881 75.79C213.881 73.95 214.471 72.61 215.651 71.77C216.851 70.91 218.601 70.48 220.901 70.48C221.381 70.48 221.911 70.52 222.491 70.6C223.091 70.66 223.531 70.72 223.811 70.78H229.271L229.151 73.78H227.081C227.581 74.28 227.831 75.02 227.831 76C227.831 77.38 227.381 78.49 226.481 79.33C225.601 80.17 224.261 80.59 222.461 80.59C222.161 80.59 221.861 80.58 221.561 80.56C221.281 80.52 221.001 80.49 220.721 80.47C220.201 80.53 219.751 80.64 219.371 80.8C219.011 80.96 218.831 81.19 218.831 81.49C218.831 81.73 218.921 81.89 219.101 81.97C219.301 82.05 219.591 82.09 219.971 82.09H223.601C225.061 82.09 226.191 82.43 226.991 83.11C227.811 83.77 228.221 84.74 228.221 86.02C228.221 88.86 225.661 90.28 220.541 90.28ZM220.931 77.92C221.991 77.92 222.721 77.74 223.121 77.38C223.521 77.02 223.721 76.42 223.721 75.58C223.721 74.74 223.511 74.13 223.091 73.75C222.691 73.37 221.971 73.18 220.931 73.18C219.951 73.18 219.241 73.37 218.801 73.75C218.381 74.11 218.171 74.72 218.171 75.58C218.171 76.38 218.371 76.97 218.771 77.35C219.171 77.73 219.891 77.92 220.931 77.92ZM230.563 85V70.78H235.063L235.213 72.01C235.793 71.61 236.523 71.26 237.403 70.96C238.283 70.64 239.223 70.48 240.223 70.48C242.063 70.48 243.403 70.92 244.243 71.8C245.083 72.68 245.503 74.04 245.503 75.88V85H240.673V76.27C240.673 75.47 240.503 74.9 240.163 74.56C239.823 74.22 239.213 74.05 238.333 74.05C237.813 74.05 237.283 74.17 236.743 74.41C236.203 74.65 235.753 74.95 235.393 75.31V85H230.563ZM253.685 85.3C252.545 85.3 251.465 85.22 250.445 85.06C249.425 84.9 248.615 84.7 248.015 84.46V80.77C248.715 81.07 249.525 81.3 250.445 81.46C251.365 81.62 252.185 81.7 252.905 81.7C253.765 81.7 254.385 81.66 254.765 81.58C255.165 81.5 255.365 81.28 255.365 80.92C255.365 80.52 255.045 80.22 254.405 80.02C253.765 79.82 252.885 79.53 251.765 79.15C250.465 78.69 249.475 78.16 248.795 77.56C248.135 76.94 247.805 76.03 247.805 74.83C247.805 73.43 248.325 72.36 249.365 71.62C250.425 70.86 252.105 70.48 254.405 70.48C255.305 70.48 256.195 70.55 257.075 70.69C257.955 70.83 258.675 70.99 259.235 71.17V74.8C258.675 74.54 258.035 74.35 257.315 74.23C256.595 74.11 255.945 74.05 255.365 74.05C254.625 74.05 253.995 74.1 253.475 74.2C252.975 74.28 252.725 74.49 252.725 74.83C252.725 75.21 253.005 75.48 253.565 75.64C254.125 75.78 254.935 76.02 255.995 76.36C257.115 76.7 257.985 77.07 258.605 77.47C259.225 77.85 259.665 78.31 259.925 78.85C260.185 79.39 260.315 80.07 260.315 80.89C260.315 82.31 259.755 83.4 258.635 84.16C257.515 84.92 255.865 85.3 253.685 85.3ZM278.236 85.3C275.096 85.3 272.706 84.5 271.066 82.9C269.426 81.3 268.606 78.81 268.606 75.43C268.606 71.85 269.426 69.28 271.066 67.72C272.706 66.16 275.096 65.38 278.236 65.38C281.376 65.38 283.766 66.16 285.406 67.72C287.046 69.28 287.866 71.85 287.866 75.43C287.866 78.81 287.046 81.3 285.406 82.9C283.766 84.5 281.376 85.3 278.236 85.3ZM278.236 81.19C279.856 81.19 281.036 80.73 281.776 79.81C282.536 78.87 282.916 77.41 282.916 75.43C282.916 73.27 282.536 71.75 281.776 70.87C281.036 69.97 279.856 69.52 278.236 69.52C276.596 69.52 275.396 69.97 274.636 70.87C273.896 71.75 273.526 73.27 273.526 75.43C273.526 77.41 273.896 78.87 274.636 79.81C275.396 80.73 276.596 81.19 278.236 81.19ZM290.329 85V70.78H294.829L294.979 72.01C295.559 71.61 296.289 71.26 297.169 70.96C298.049 70.64 298.989 70.48 299.989 70.48C301.829 70.48 303.169 70.92 304.009 71.8C304.849 72.68 305.269 74.04 305.269 75.88V85H300.439V76.27C300.439 75.47 300.269 74.9 299.929 74.56C299.589 74.22 298.979 74.05 298.099 74.05C297.579 74.05 297.049 74.17 296.509 74.41C295.969 74.65 295.519 74.95 295.159 75.31V85H290.329ZM319.086 85V69.4H313.416V65.68H329.586V69.4H323.916V85H319.086ZM331.755 85V64.78H336.585V71.83C337.125 71.43 337.795 71.11 338.595 70.87C339.395 70.61 340.255 70.48 341.175 70.48C343.075 70.48 344.465 70.93 345.345 71.83C346.245 72.73 346.695 74.11 346.695 75.97V85H341.865V76.3C341.865 75.48 341.695 74.9 341.355 74.56C341.015 74.22 340.405 74.05 339.525 74.05C339.005 74.05 338.475 74.17 337.935 74.41C337.395 74.65 336.945 74.95 336.585 75.31V85H331.755ZM357.041 85.3C354.561 85.3 352.571 84.69 351.071 83.47C349.571 82.23 348.821 80.37 348.821 77.89C348.821 75.63 349.441 73.83 350.681 72.49C351.921 71.15 353.781 70.48 356.261 70.48C358.521 70.48 360.271 71.06 361.511 72.22C362.751 73.38 363.371 74.94 363.371 76.9V79.45H353.291C353.511 80.39 354.021 81.05 354.821 81.43C355.641 81.79 356.751 81.97 358.151 81.97C358.931 81.97 359.721 81.9 360.521 81.76C361.341 81.62 362.021 81.44 362.561 81.22V84.37C361.881 84.69 361.071 84.92 360.131 85.06C359.191 85.22 358.161 85.3 357.041 85.3ZM353.291 76.66H359.171V76.03C359.171 75.33 358.961 74.78 358.541 74.38C358.121 73.96 357.411 73.75 356.411 73.75C355.251 73.75 354.441 73.99 353.981 74.47C353.521 74.93 353.291 75.66 353.291 76.66ZM372.272 85V65.68H381.782C383.322 65.68 384.592 65.99 385.592 66.61C386.592 67.21 387.332 68.03 387.812 69.07C388.312 70.11 388.562 71.28 388.562 72.58C388.562 73.9 388.282 75.07 387.722 76.09C387.162 77.11 386.362 77.91 385.322 78.49C384.302 79.05 383.082 79.33 381.662 79.33H377.102V85H372.272ZM377.102 75.61H380.582C381.602 75.61 382.362 75.33 382.862 74.77C383.382 74.21 383.642 73.47 383.642 72.55C383.642 71.55 383.402 70.78 382.922 70.24C382.462 69.68 381.732 69.4 380.732 69.4H377.102V75.61ZM394.846 85.3C393.286 85.3 392.166 84.96 391.486 84.28C390.806 83.6 390.466 82.51 390.466 81.01V64.78H395.296V80.53C395.296 80.99 395.386 81.31 395.566 81.49C395.766 81.65 396.056 81.73 396.436 81.73C396.976 81.73 397.456 81.66 397.876 81.52V84.79C397.416 84.97 396.956 85.1 396.496 85.18C396.056 85.26 395.506 85.3 394.846 85.3ZM404.134 85.3C403.234 85.3 402.394 85.14 401.614 84.82C400.854 84.5 400.244 84.01 399.784 83.35C399.324 82.67 399.094 81.83 399.094 80.83C399.094 79.37 399.584 78.23 400.564 77.41C401.564 76.57 403.054 76.15 405.034 76.15H408.994V75.82C408.994 75.1 408.754 74.59 408.274 74.29C407.794 73.97 406.894 73.81 405.574 73.81C403.954 73.81 402.364 74.06 400.804 74.56V71.44C401.504 71.16 402.354 70.93 403.354 70.75C404.374 70.57 405.444 70.48 406.564 70.48C408.764 70.48 410.484 70.93 411.724 71.83C412.984 72.73 413.614 74.16 413.614 76.12V85H409.384L409.144 83.8C408.624 84.28 407.954 84.65 407.134 84.91C406.334 85.17 405.334 85.3 404.134 85.3ZM405.664 82.33C406.424 82.33 407.084 82.2 407.644 81.94C408.204 81.68 408.654 81.35 408.994 80.95V78.94H405.574C404.154 78.94 403.444 79.51 403.444 80.65C403.444 81.17 403.624 81.58 403.984 81.88C404.344 82.18 404.904 82.33 405.664 82.33ZM422.36 85.3C420.6 85.3 419.3 84.85 418.46 83.95C417.64 83.05 417.23 81.81 417.23 80.23V74.44H415.31V70.78H417.23V67.81L422.06 66.52V70.78H425.51L425.3 74.44H422.06V79.9C422.06 80.58 422.23 81.06 422.57 81.34C422.91 81.6 423.42 81.73 424.1 81.73C424.68 81.73 425.27 81.63 425.87 81.43V84.7C424.93 85.1 423.76 85.3 422.36 85.3ZM428.391 85V74.44H426.501V70.78H428.391V69.61C428.391 68.07 428.831 66.8 429.711 65.8C430.591 64.8 431.901 64.3 433.641 64.3C434.361 64.3 435.001 64.36 435.561 64.48C436.121 64.58 436.651 64.73 437.151 64.93V68.17C436.851 68.07 436.561 67.99 436.281 67.93C436.001 67.87 435.691 67.84 435.351 67.84C434.571 67.84 434.021 67.99 433.701 68.29C433.381 68.57 433.221 69.04 433.221 69.7V70.78H436.731L436.521 74.44H433.221V85H428.391ZM445.336 85.3C442.596 85.3 440.576 84.67 439.276 83.41C437.976 82.13 437.326 80.29 437.326 77.89C437.326 75.51 437.976 73.68 439.276 72.4C440.596 71.12 442.616 70.48 445.336 70.48C448.076 70.48 450.096 71.12 451.396 72.4C452.716 73.68 453.376 75.51 453.376 77.89C453.376 80.29 452.726 82.13 451.426 83.41C450.126 84.67 448.096 85.3 445.336 85.3ZM445.336 81.52C446.456 81.52 447.256 81.24 447.736 80.68C448.216 80.12 448.456 79.19 448.456 77.89C448.456 76.59 448.216 75.66 447.736 75.1C447.256 74.54 446.456 74.26 445.336 74.26C444.236 74.26 443.446 74.54 442.966 75.1C442.486 75.66 442.246 76.59 442.246 77.89C442.246 79.19 442.486 80.12 442.966 80.68C443.446 81.24 444.236 81.52 445.336 81.52ZM455.827 85V70.78H460.417L460.567 72.1C461.187 71.72 461.957 71.38 462.877 71.08C463.797 70.76 464.717 70.56 465.637 70.48V74.11C465.117 74.17 464.537 74.27 463.897 74.41C463.277 74.53 462.677 74.68 462.097 74.86C461.537 75.04 461.057 75.23 460.657 75.43V85H455.827ZM467.458 85V70.78H471.928L472.078 72.04C472.718 71.58 473.438 71.21 474.238 70.93C475.038 70.63 475.898 70.48 476.818 70.48C477.778 70.48 478.528 70.63 479.068 70.93C479.608 71.21 480.028 71.61 480.328 72.13C480.988 71.65 481.728 71.26 482.548 70.96C483.388 70.64 484.368 70.48 485.488 70.48C487.148 70.48 488.368 70.91 489.148 71.77C489.928 72.63 490.318 73.94 490.318 75.7V85H485.548V76.27C485.548 75.49 485.378 74.93 485.038 74.59C484.718 74.23 484.188 74.05 483.448 74.05C482.988 74.05 482.538 74.15 482.098 74.35C481.658 74.53 481.288 74.79 480.988 75.13C481.028 75.35 481.048 75.56 481.048 75.76C481.068 75.96 481.078 76.2 481.078 76.48V85H476.578V76.21C476.578 75.49 476.448 74.95 476.188 74.59C475.948 74.23 475.478 74.05 474.778 74.05C474.278 74.05 473.808 74.18 473.368 74.44C472.928 74.7 472.528 75 472.168 75.34V85H467.458Z" fill="white"/>
<rect x="1000" y="50" width="144" height="49" rx="3" fill="#00CC8F"/>
<rect x="841.5" y="50.5" width="143" height="48" rx="2.5" stroke="#00CC8F" stroke-opacity="0.35"/>
<path d="M887.398 80H885.023L885.039 78.7734H887.398C888.211 78.7734 888.888 78.6042 889.43 78.2656C889.971 77.9219 890.378 77.4427 890.648 76.8281C890.924 76.2083 891.062 75.4844 891.062 74.6562V73.9609C891.062 73.3099 890.984 72.7318 890.828 72.2266C890.672 71.7161 890.443 71.2865 890.141 70.9375C889.839 70.5833 889.469 70.3151 889.031 70.1328C888.599 69.9505 888.102 69.8594 887.539 69.8594H884.977V68.625H887.539C888.284 68.625 888.964 68.75 889.578 69C890.193 69.2448 890.721 69.6016 891.164 70.0703C891.612 70.5339 891.956 71.0964 892.195 71.7578C892.435 72.4141 892.555 73.1536 892.555 73.9766V74.6562C892.555 75.4792 892.435 76.2214 892.195 76.8828C891.956 77.5391 891.609 78.099 891.156 78.5625C890.708 79.026 890.167 79.3828 889.531 79.6328C888.901 79.8776 888.19 80 887.398 80ZM885.828 68.625V80H884.32V68.625H885.828ZM896.047 72.875V80H894.602V71.5469H896.008L896.047 72.875ZM898.688 71.5L898.68 72.8438C898.56 72.8177 898.445 72.8021 898.336 72.7969C898.232 72.7865 898.112 72.7812 897.977 72.7812C897.643 72.7812 897.349 72.8333 897.094 72.9375C896.839 73.0417 896.622 73.1875 896.445 73.375C896.268 73.5625 896.128 73.7865 896.023 74.0469C895.924 74.3021 895.859 74.5833 895.828 74.8906L895.422 75.125C895.422 74.6146 895.471 74.1354 895.57 73.6875C895.674 73.2396 895.833 72.8438 896.047 72.5C896.26 72.151 896.531 71.8802 896.859 71.6875C897.193 71.4896 897.589 71.3906 898.047 71.3906C898.151 71.3906 898.271 71.4036 898.406 71.4297C898.542 71.4505 898.635 71.474 898.688 71.5ZM901.594 71.5469V80H900.141V71.5469H901.594ZM900.031 69.3047C900.031 69.0703 900.102 68.8724 900.242 68.7109C900.388 68.5495 900.602 68.4688 900.883 68.4688C901.159 68.4688 901.37 68.5495 901.516 68.7109C901.667 68.8724 901.742 69.0703 901.742 69.3047C901.742 69.5286 901.667 69.7214 901.516 69.8828C901.37 70.0391 901.159 70.1172 900.883 70.1172C900.602 70.1172 900.388 70.0391 900.242 69.8828C900.102 69.7214 900.031 69.5286 900.031 69.3047ZM903.906 68H905.359V78.3594L905.234 80H903.906V68ZM911.07 75.7031V75.8672C911.07 76.4818 910.997 77.0521 910.852 77.5781C910.706 78.099 910.492 78.5521 910.211 78.9375C909.93 79.3229 909.586 79.6224 909.18 79.8359C908.773 80.0495 908.307 80.1562 907.781 80.1562C907.245 80.1562 906.773 80.0651 906.367 79.8828C905.966 79.6953 905.628 79.4271 905.352 79.0781C905.076 78.7292 904.854 78.3073 904.688 77.8125C904.526 77.3177 904.414 76.7604 904.352 76.1406V75.4219C904.414 74.7969 904.526 74.237 904.688 73.7422C904.854 73.2474 905.076 72.8255 905.352 72.4766C905.628 72.1224 905.966 71.8542 906.367 71.6719C906.768 71.4844 907.234 71.3906 907.766 71.3906C908.297 71.3906 908.768 71.4948 909.18 71.7031C909.591 71.9062 909.935 72.1979 910.211 72.5781C910.492 72.9583 910.706 73.4141 910.852 73.9453C910.997 74.4714 911.07 75.0573 911.07 75.7031ZM909.617 75.8672V75.7031C909.617 75.2812 909.578 74.8854 909.5 74.5156C909.422 74.1406 909.297 73.8125 909.125 73.5312C908.953 73.2448 908.727 73.0208 908.445 72.8594C908.164 72.6927 907.818 72.6094 907.406 72.6094C907.042 72.6094 906.724 72.6719 906.453 72.7969C906.188 72.9219 905.961 73.0911 905.773 73.3047C905.586 73.513 905.432 73.7526 905.312 74.0234C905.198 74.2891 905.112 74.5651 905.055 74.8516V76.7344C905.138 77.099 905.273 77.4505 905.461 77.7891C905.654 78.1224 905.909 78.3958 906.227 78.6094C906.549 78.8229 906.948 78.9297 907.422 78.9297C907.812 78.9297 908.146 78.8516 908.422 78.6953C908.703 78.5339 908.93 78.3125 909.102 78.0312C909.279 77.75 909.409 77.4245 909.492 77.0547C909.576 76.6849 909.617 76.2891 909.617 75.8672ZM912.891 68H914.344V78.3594L914.219 80H912.891V68ZM920.055 75.7031V75.8672C920.055 76.4818 919.982 77.0521 919.836 77.5781C919.69 78.099 919.477 78.5521 919.195 78.9375C918.914 79.3229 918.57 79.6224 918.164 79.8359C917.758 80.0495 917.292 80.1562 916.766 80.1562C916.229 80.1562 915.758 80.0651 915.352 79.8828C914.951 79.6953 914.612 79.4271 914.336 79.0781C914.06 78.7292 913.839 78.3073 913.672 77.8125C913.51 77.3177 913.398 76.7604 913.336 76.1406V75.4219C913.398 74.7969 913.51 74.237 913.672 73.7422C913.839 73.2474 914.06 72.8255 914.336 72.4766C914.612 72.1224 914.951 71.8542 915.352 71.6719C915.753 71.4844 916.219 71.3906 916.75 71.3906C917.281 71.3906 917.753 71.4948 918.164 71.7031C918.576 71.9062 918.919 72.1979 919.195 72.5781C919.477 72.9583 919.69 73.4141 919.836 73.9453C919.982 74.4714 920.055 75.0573 920.055 75.7031ZM918.602 75.8672V75.7031C918.602 75.2812 918.562 74.8854 918.484 74.5156C918.406 74.1406 918.281 73.8125 918.109 73.5312C917.938 73.2448 917.711 73.0208 917.43 72.8594C917.148 72.6927 916.802 72.6094 916.391 72.6094C916.026 72.6094 915.708 72.6719 915.438 72.7969C915.172 72.9219 914.945 73.0911 914.758 73.3047C914.57 73.513 914.417 73.7526 914.297 74.0234C914.182 74.2891 914.096 74.5651 914.039 74.8516V76.7344C914.122 77.099 914.258 77.4505 914.445 77.7891C914.638 78.1224 914.893 78.3958 915.211 78.6094C915.534 78.8229 915.932 78.9297 916.406 78.9297C916.797 78.9297 917.13 78.8516 917.406 78.6953C917.688 78.5339 917.914 78.3125 918.086 78.0312C918.263 77.75 918.393 77.4245 918.477 77.0547C918.56 76.6849 918.602 76.2891 918.602 75.8672ZM921.875 68H923.328V78.3594L923.203 80H921.875V68ZM929.039 75.7031V75.8672C929.039 76.4818 928.966 77.0521 928.82 77.5781C928.674 78.099 928.461 78.5521 928.18 78.9375C927.898 79.3229 927.555 79.6224 927.148 79.8359C926.742 80.0495 926.276 80.1562 925.75 80.1562C925.214 80.1562 924.742 80.0651 924.336 79.8828C923.935 79.6953 923.596 79.4271 923.32 79.0781C923.044 78.7292 922.823 78.3073 922.656 77.8125C922.495 77.3177 922.383 76.7604 922.32 76.1406V75.4219C922.383 74.7969 922.495 74.237 922.656 73.7422C922.823 73.2474 923.044 72.8255 923.32 72.4766C923.596 72.1224 923.935 71.8542 924.336 71.6719C924.737 71.4844 925.203 71.3906 925.734 71.3906C926.266 71.3906 926.737 71.4948 927.148 71.7031C927.56 71.9062 927.904 72.1979 928.18 72.5781C928.461 72.9583 928.674 73.4141 928.82 73.9453C928.966 74.4714 929.039 75.0573 929.039 75.7031ZM927.586 75.8672V75.7031C927.586 75.2812 927.547 74.8854 927.469 74.5156C927.391 74.1406 927.266 73.8125 927.094 73.5312C926.922 73.2448 926.695 73.0208 926.414 72.8594C926.133 72.6927 925.786 72.6094 925.375 72.6094C925.01 72.6094 924.693 72.6719 924.422 72.7969C924.156 72.9219 923.93 73.0911 923.742 73.3047C923.555 73.513 923.401 73.7526 923.281 74.0234C923.167 74.2891 923.081 74.5651 923.023 74.8516V76.7344C923.107 77.099 923.242 77.4505 923.43 77.7891C923.622 78.1224 923.878 78.3958 924.195 78.6094C924.518 78.8229 924.917 78.9297 925.391 78.9297C925.781 78.9297 926.115 78.8516 926.391 78.6953C926.672 78.5339 926.898 78.3125 927.07 78.0312C927.247 77.75 927.378 77.4245 927.461 77.0547C927.544 76.6849 927.586 76.2891 927.586 75.8672ZM932.438 68V80H930.984V68H932.438ZM938.266 80.1562C937.677 80.1562 937.143 80.0573 936.664 79.8594C936.19 79.6562 935.781 79.3724 935.438 79.0078C935.099 78.6432 934.839 78.2109 934.656 77.7109C934.474 77.2109 934.383 76.6641 934.383 76.0703V75.7422C934.383 75.0547 934.484 74.4427 934.688 73.9062C934.891 73.3646 935.167 72.9062 935.516 72.5312C935.865 72.1562 936.26 71.8724 936.703 71.6797C937.146 71.487 937.604 71.3906 938.078 71.3906C938.682 71.3906 939.203 71.4948 939.641 71.7031C940.083 71.9115 940.445 72.2031 940.727 72.5781C941.008 72.9479 941.216 73.3854 941.352 73.8906C941.487 74.3906 941.555 74.9375 941.555 75.5312V76.1797H935.242V75H940.109V74.8906C940.089 74.5156 940.01 74.151 939.875 73.7969C939.745 73.4427 939.536 73.151 939.25 72.9219C938.964 72.6927 938.573 72.5781 938.078 72.5781C937.75 72.5781 937.448 72.6484 937.172 72.7891C936.896 72.9245 936.659 73.1276 936.461 73.3984C936.263 73.6693 936.109 74 936 74.3906C935.891 74.7812 935.836 75.2318 935.836 75.7422V76.0703C935.836 76.4714 935.891 76.849 936 77.2031C936.115 77.5521 936.279 77.8594 936.492 78.125C936.711 78.3906 936.974 78.599 937.281 78.75C937.594 78.901 937.948 78.9766 938.344 78.9766C938.854 78.9766 939.286 78.8724 939.641 78.6641C939.995 78.4557 940.305 78.1771 940.57 77.8281L941.445 78.5234C941.263 78.7995 941.031 79.0625 940.75 79.3125C940.469 79.5625 940.122 79.7656 939.711 79.9219C939.305 80.0781 938.823 80.1562 938.266 80.1562Z" fill="white"/>
<path d="M1046.38 74.6797H1043.49L1043.48 73.4688H1046.09C1046.53 73.4688 1046.9 73.3958 1047.23 73.25C1047.55 73.1042 1047.8 72.8958 1047.98 72.625C1048.16 72.349 1048.25 72.0208 1048.25 71.6406C1048.25 71.224 1048.17 70.8854 1048.01 70.625C1047.85 70.3594 1047.61 70.1667 1047.28 70.0469C1046.96 69.9219 1046.55 69.8594 1046.05 69.8594H1043.83V80H1042.32V68.625H1046.05C1046.63 68.625 1047.15 68.6849 1047.61 68.8047C1048.07 68.9193 1048.46 69.1016 1048.77 69.3516C1049.1 69.5964 1049.34 69.9089 1049.51 70.2891C1049.67 70.6693 1049.76 71.125 1049.76 71.6562C1049.76 72.125 1049.64 72.5495 1049.4 72.9297C1049.16 73.3047 1048.83 73.612 1048.4 73.8516C1047.98 74.0911 1047.48 74.2448 1046.91 74.3125L1046.38 74.6797ZM1046.3 80H1042.9L1043.75 78.7734H1046.3C1046.78 78.7734 1047.19 78.6901 1047.52 78.5234C1047.86 78.3568 1048.12 78.1224 1048.3 77.8203C1048.47 77.513 1048.56 77.151 1048.56 76.7344C1048.56 76.3125 1048.49 75.9479 1048.34 75.6406C1048.18 75.3333 1047.95 75.0964 1047.62 74.9297C1047.3 74.763 1046.89 74.6797 1046.38 74.6797H1044.23L1044.24 73.4688H1047.18L1047.5 73.9062C1048.05 73.9531 1048.51 74.1094 1048.89 74.375C1049.27 74.6354 1049.56 74.9688 1049.76 75.375C1049.96 75.7812 1050.06 76.2292 1050.06 76.7188C1050.06 77.4271 1049.91 78.026 1049.59 78.5156C1049.29 79 1048.85 79.3698 1048.29 79.625C1047.73 79.875 1047.07 80 1046.3 80ZM1055.58 80.1562C1054.99 80.1562 1054.46 80.0573 1053.98 79.8594C1053.5 79.6562 1053.09 79.3724 1052.75 79.0078C1052.41 78.6432 1052.15 78.2109 1051.97 77.7109C1051.79 77.2109 1051.7 76.6641 1051.7 76.0703V75.7422C1051.7 75.0547 1051.8 74.4427 1052 73.9062C1052.2 73.3646 1052.48 72.9062 1052.83 72.5312C1053.18 72.1562 1053.57 71.8724 1054.02 71.6797C1054.46 71.487 1054.92 71.3906 1055.39 71.3906C1055.99 71.3906 1056.52 71.4948 1056.95 71.7031C1057.4 71.9115 1057.76 72.2031 1058.04 72.5781C1058.32 72.9479 1058.53 73.3854 1058.66 73.8906C1058.8 74.3906 1058.87 74.9375 1058.87 75.5312V76.1797H1052.55V75H1057.42V74.8906C1057.4 74.5156 1057.32 74.151 1057.19 73.7969C1057.06 73.4427 1056.85 73.151 1056.56 72.9219C1056.28 72.6927 1055.89 72.5781 1055.39 72.5781C1055.06 72.5781 1054.76 72.6484 1054.48 72.7891C1054.21 72.9245 1053.97 73.1276 1053.77 73.3984C1053.58 73.6693 1053.42 74 1053.31 74.3906C1053.2 74.7812 1053.15 75.2318 1053.15 75.7422V76.0703C1053.15 76.4714 1053.2 76.849 1053.31 77.2031C1053.43 77.5521 1053.59 77.8594 1053.8 78.125C1054.02 78.3906 1054.29 78.599 1054.59 78.75C1054.91 78.901 1055.26 78.9766 1055.66 78.9766C1056.17 78.9766 1056.6 78.8724 1056.95 78.6641C1057.31 78.4557 1057.62 78.1771 1057.88 77.8281L1058.76 78.5234C1058.58 78.7995 1058.34 79.0625 1058.06 79.3125C1057.78 79.5625 1057.43 79.7656 1057.02 79.9219C1056.62 80.0781 1056.14 80.1562 1055.58 80.1562ZM1062 68V80H1060.55V68H1062ZM1061.66 75.4531L1061.05 75.4297C1061.06 74.8516 1061.15 74.3177 1061.31 73.8281C1061.48 73.3333 1061.71 72.9036 1062.02 72.5391C1062.32 72.1745 1062.68 71.8932 1063.09 71.6953C1063.52 71.4922 1063.98 71.3906 1064.49 71.3906C1064.91 71.3906 1065.28 71.4479 1065.62 71.5625C1065.95 71.6719 1066.23 71.849 1066.47 72.0938C1066.71 72.3385 1066.89 72.6562 1067.02 73.0469C1067.14 73.4323 1067.2 73.9036 1067.2 74.4609V80H1065.75V74.4453C1065.75 74.0026 1065.68 73.6484 1065.55 73.3828C1065.42 73.112 1065.23 72.9167 1064.98 72.7969C1064.73 72.6719 1064.43 72.6094 1064.06 72.6094C1063.7 72.6094 1063.38 72.6849 1063.08 72.8359C1062.79 72.987 1062.53 73.1953 1062.32 73.4609C1062.11 73.7266 1061.95 74.0312 1061.83 74.375C1061.71 74.7135 1061.66 75.0729 1061.66 75.4531ZM1074.35 78.5547V74.2031C1074.35 73.8698 1074.28 73.5807 1074.15 73.3359C1074.02 73.0859 1073.82 72.8932 1073.55 72.7578C1073.29 72.6224 1072.96 72.5547 1072.57 72.5547C1072.21 72.5547 1071.89 72.6172 1071.61 72.7422C1071.34 72.8672 1071.12 73.0312 1070.97 73.2344C1070.82 73.4375 1070.74 73.6562 1070.74 73.8906H1069.3C1069.3 73.5885 1069.38 73.2891 1069.53 72.9922C1069.69 72.6953 1069.91 72.4271 1070.2 72.1875C1070.5 71.9427 1070.85 71.75 1071.27 71.6094C1071.68 71.4635 1072.15 71.3906 1072.66 71.3906C1073.27 71.3906 1073.81 71.4948 1074.28 71.7031C1074.76 71.9115 1075.12 72.2266 1075.39 72.6484C1075.66 73.0651 1075.8 73.5885 1075.8 74.2188V78.1562C1075.8 78.4375 1075.82 78.737 1075.87 79.0547C1075.92 79.3724 1075.99 79.6458 1076.09 79.875V80H1074.59C1074.51 79.8333 1074.46 79.612 1074.41 79.3359C1074.37 79.0547 1074.35 78.7943 1074.35 78.5547ZM1074.6 74.875L1074.62 75.8906H1073.16C1072.74 75.8906 1072.38 75.9245 1072.05 75.9922C1071.73 76.0547 1071.46 76.151 1071.24 76.2812C1071.02 76.4115 1070.86 76.5755 1070.74 76.7734C1070.63 76.9661 1070.57 77.1927 1070.57 77.4531C1070.57 77.7188 1070.63 77.9609 1070.75 78.1797C1070.87 78.3984 1071.05 78.5729 1071.29 78.7031C1071.53 78.8281 1071.83 78.8906 1072.19 78.8906C1072.63 78.8906 1073.02 78.7969 1073.36 78.6094C1073.7 78.4219 1073.97 78.1927 1074.16 77.9219C1074.37 77.651 1074.48 77.388 1074.49 77.1328L1075.11 77.8281C1075.07 78.0469 1074.97 78.2891 1074.81 78.5547C1074.65 78.8203 1074.43 79.0755 1074.16 79.3203C1073.9 79.5599 1073.58 79.7604 1073.21 79.9219C1072.85 80.0781 1072.43 80.1562 1071.98 80.1562C1071.4 80.1562 1070.9 80.0443 1070.47 79.8203C1070.04 79.5964 1069.71 79.2969 1069.47 78.9219C1069.23 78.5417 1069.12 78.1172 1069.12 77.6484C1069.12 77.1953 1069.21 76.7969 1069.38 76.4531C1069.56 76.1042 1069.82 75.8151 1070.15 75.5859C1070.48 75.3516 1070.88 75.1745 1071.35 75.0547C1071.82 74.9349 1072.34 74.875 1072.92 74.875H1074.6ZM1079.52 73.3516V80H1078.07V71.5469H1079.44L1079.52 73.3516ZM1079.17 75.4531L1078.57 75.4297C1078.58 74.8516 1078.66 74.3177 1078.83 73.8281C1078.99 73.3333 1079.23 72.9036 1079.53 72.5391C1079.83 72.1745 1080.19 71.8932 1080.61 71.6953C1081.03 71.4922 1081.5 71.3906 1082.01 71.3906C1082.42 71.3906 1082.8 71.4479 1083.13 71.5625C1083.47 71.6719 1083.75 71.849 1083.98 72.0938C1084.22 72.3385 1084.41 72.6562 1084.53 73.0469C1084.66 73.4323 1084.72 73.9036 1084.72 74.4609V80H1083.27V74.4453C1083.27 74.0026 1083.2 73.6484 1083.07 73.3828C1082.94 73.112 1082.75 72.9167 1082.5 72.7969C1082.25 72.6719 1081.94 72.6094 1081.58 72.6094C1081.22 72.6094 1080.89 72.6849 1080.59 72.8359C1080.3 72.987 1080.05 73.1953 1079.84 73.4609C1079.63 73.7266 1079.46 74.0312 1079.34 74.375C1079.23 74.7135 1079.17 75.0729 1079.17 75.4531ZM1090.3 78.9688C1090.64 78.9688 1090.96 78.8984 1091.25 78.7578C1091.54 78.6172 1091.78 78.4245 1091.97 78.1797C1092.16 77.9297 1092.26 77.6458 1092.29 77.3281H1093.66C1093.64 77.8281 1093.47 78.2943 1093.16 78.7266C1092.85 79.1536 1092.45 79.5 1091.95 79.7656C1091.45 80.026 1090.9 80.1562 1090.3 80.1562C1089.66 80.1562 1089.11 80.0443 1088.63 79.8203C1088.16 79.5964 1087.77 79.2891 1087.46 78.8984C1087.15 78.5078 1086.92 78.0599 1086.77 77.5547C1086.61 77.0443 1086.54 76.5052 1086.54 75.9375V75.6094C1086.54 75.0417 1086.61 74.5052 1086.77 74C1086.92 73.4896 1087.15 73.0391 1087.46 72.6484C1087.77 72.2578 1088.16 71.9505 1088.63 71.7266C1089.11 71.5026 1089.66 71.3906 1090.3 71.3906C1090.96 71.3906 1091.54 71.526 1092.03 71.7969C1092.53 72.0625 1092.91 72.4271 1093.2 72.8906C1093.48 73.349 1093.64 73.8698 1093.66 74.4531H1092.29C1092.26 74.1042 1092.16 73.7891 1091.99 73.5078C1091.83 73.2266 1091.6 73.0026 1091.3 72.8359C1091.02 72.6641 1090.68 72.5781 1090.3 72.5781C1089.85 72.5781 1089.48 72.6667 1089.18 72.8438C1088.88 73.0156 1088.65 73.25 1088.47 73.5469C1088.3 73.8385 1088.17 74.1641 1088.09 74.5234C1088.02 74.8776 1087.98 75.2396 1087.98 75.6094V75.9375C1087.98 76.3073 1088.02 76.6719 1088.09 77.0312C1088.17 77.3906 1088.29 77.7161 1088.46 78.0078C1088.64 78.2995 1088.88 78.5339 1089.17 78.7109C1089.47 78.8828 1089.85 78.9688 1090.3 78.9688ZM1098.8 80.1562C1098.21 80.1562 1097.67 80.0573 1097.2 79.8594C1096.72 79.6562 1096.31 79.3724 1095.97 79.0078C1095.63 78.6432 1095.37 78.2109 1095.19 77.7109C1095.01 77.2109 1094.91 76.6641 1094.91 76.0703V75.7422C1094.91 75.0547 1095.02 74.4427 1095.22 73.9062C1095.42 73.3646 1095.7 72.9062 1096.05 72.5312C1096.4 72.1562 1096.79 71.8724 1097.23 71.6797C1097.68 71.487 1098.14 71.3906 1098.61 71.3906C1099.21 71.3906 1099.73 71.4948 1100.17 71.7031C1100.61 71.9115 1100.98 72.2031 1101.26 72.5781C1101.54 72.9479 1101.75 73.3854 1101.88 73.8906C1102.02 74.3906 1102.09 74.9375 1102.09 75.5312V76.1797H1095.77V75H1100.64V74.8906C1100.62 74.5156 1100.54 74.151 1100.41 73.7969C1100.28 73.4427 1100.07 73.151 1099.78 72.9219C1099.49 72.6927 1099.1 72.5781 1098.61 72.5781C1098.28 72.5781 1097.98 72.6484 1097.7 72.7891C1097.43 72.9245 1097.19 73.1276 1096.99 73.3984C1096.79 73.6693 1096.64 74 1096.53 74.3906C1096.42 74.7812 1096.37 75.2318 1096.37 75.7422V76.0703C1096.37 76.4714 1096.42 76.849 1096.53 77.2031C1096.65 77.5521 1096.81 77.8594 1097.02 78.125C1097.24 78.3906 1097.51 78.599 1097.81 78.75C1098.12 78.901 1098.48 78.9766 1098.88 78.9766C1099.39 78.9766 1099.82 78.8724 1100.17 78.6641C1100.53 78.4557 1100.84 78.1771 1101.1 77.8281L1101.98 78.5234C1101.79 78.7995 1101.56 79.0625 1101.28 79.3125C1101 79.5625 1100.65 79.7656 1100.24 79.9219C1099.84 80.0781 1099.35 80.1562 1098.8 80.1562Z" fill="white"/>
<defs>
<linearGradient id="paint0_linear_233_2" x1="597" y1="0" x2="597" y2="149" gradientUnits="userSpaceOnUse">
<stop stop-color="white" stop-opacity="0.1"/>
<stop offset="1" stop-color="#282833" stop-opacity="0.1"/>
</linearGradient>
</defs>
</svg>
